<mxfile host="Electron" agent="Mozilla/5.0 (Windows NT 10.0; Win64; x64) AppleWebKit/537.36 (KHTML, like Gecko) draw.io/27.0.9 Chrome/134.0.6998.205 Electron/35.4.0 Safari/537.36" version="27.0.9">
  <diagram name="Página-1" id="J9mVYuhFoI2T116SDaUT">
    <mxGraphModel dx="1773" dy="661" grid="1" gridSize="10" guides="1" tooltips="1" connect="1" arrows="1" fold="1" page="1" pageScale="1" pageWidth="827" pageHeight="1169" math="0" shadow="0">
      <root>
        <mxCell id="0" />
        <mxCell id="1" parent="0" />
        <mxCell id="gsBzdiiEuUU9N9ICdB3_-1" value="&lt;div style=&quot;line-height: 100%;&quot;&gt;&lt;div&gt;&lt;font style=&quot;font-size: 10px; line-height: 100%;&quot;&gt;Ejercicio 38: Vuelta ciclista a España&lt;/font&gt;&lt;/div&gt;&lt;div&gt;&lt;font style=&quot;font-size: 10px; line-height: 100%; color: rgb(102, 255, 102);&quot;&gt;Con la próxima edición de la Vuelta Ciclista a España, un periódico deportivo quiere crear una base de datos&lt;/font&gt;&lt;/div&gt;&lt;div&gt;&lt;font style=&quot;font-size: 10px; line-height: 100%; color: rgb(102, 255, 102);&quot;&gt;para mantener información sobre las pruebas ciclistas por etapas. En la base de datos debe aparecer&lt;/font&gt;&lt;/div&gt;&lt;div&gt;&lt;font style=&quot;font-size: 10px; line-height: 100%; color: rgb(102, 255, 102);&quot;&gt;información sobre los ciclistas, los equipos a los que pertenecen y las pruebas en las que cada equipo ha&lt;/font&gt;&lt;/div&gt;&lt;div&gt;&lt;font style=&quot;font-size: 10px; line-height: 100%; color: rgb(102, 255, 102);&quot;&gt;participado (se asume que participa todo el equipo).&lt;/font&gt;&lt;/div&gt;&lt;div&gt;&lt;font style=&quot;font-size: 10px; line-height: 100%; color: rgb(0, 204, 0);&quot;&gt;De cada ciclista, se desea conocer su DNI, nombre, nacionalidad y fecha de nacimiento, así como el equipo al&lt;/font&gt;&lt;/div&gt;&lt;div&gt;&lt;font style=&quot;font-size: 10px; line-height: 100%; color: rgb(0, 204, 0);&quot;&gt;que pertenece. Se debe almacenar la fecha de inicio y fin de contrato de un ciclista con el equipo.&lt;/font&gt;&lt;/div&gt;&lt;div&gt;&lt;font style=&quot;font-size: 10px; line-height: 100%; color: rgb(102, 255, 102);&quot;&gt;De cada equipo también se desea conocer su nombre único, su nacionalidad y el nombre del director. Se ha&lt;/font&gt;&lt;/div&gt;&lt;div&gt;&lt;font style=&quot;font-size: 10px; line-height: 100%; color: rgb(102, 255, 102);&quot;&gt;de conocer las pruebas en las que ha participado cada equipo.&lt;/font&gt;&lt;/div&gt;&lt;div&gt;&lt;font style=&quot;font-size: 10px; line-height: 100%;&quot;&gt;De las pruebas almacenaremos con su nombre único, año de edición, nº de etapas y kilómetros totales. El&lt;/font&gt;&lt;/div&gt;&lt;div&gt;&lt;font style=&quot;font-size: 10px; line-height: 100%;&quot;&gt;periódico nos insiste en que se tiene que poder almacenar la fecha en la que cada equipo participó en cada&lt;/font&gt;&lt;/div&gt;&lt;div&gt;&lt;font style=&quot;font-size: 10px; line-height: 100%;&quot;&gt;prueba. Un dato adicional para las pruebas es saber el nombre del ciclista que quedó ganador.&lt;/font&gt;&lt;/div&gt;&lt;/div&gt;" style="text;html=1;align=left;verticalAlign=middle;whiteSpace=wrap;rounded=0;" vertex="1" parent="1">
          <mxGeometry x="-240" y="410" width="500" height="150" as="geometry" />
        </mxCell>
        <mxCell id="gsBzdiiEuUU9N9ICdB3_-2" value="ciclista" style="whiteSpace=wrap;html=1;align=center;fillColor=#f0a30a;strokeColor=#BD7000;fontColor=#000000;" vertex="1" parent="1">
          <mxGeometry x="-295" y="690" width="60" height="40" as="geometry" />
        </mxCell>
        <mxCell id="gsBzdiiEuUU9N9ICdB3_-3" value="equipo" style="whiteSpace=wrap;html=1;align=center;fillColor=#f0a30a;strokeColor=#BD7000;fontColor=#000000;" vertex="1" parent="1">
          <mxGeometry x="-20" y="690" width="60" height="40" as="geometry" />
        </mxCell>
        <mxCell id="gsBzdiiEuUU9N9ICdB3_-4" value="prueba" style="whiteSpace=wrap;html=1;align=center;fillColor=#f0a30a;strokeColor=#BD7000;fontColor=#000000;" vertex="1" parent="1">
          <mxGeometry x="250" y="690" width="60" height="40" as="geometry" />
        </mxCell>
        <mxCell id="gsBzdiiEuUU9N9ICdB3_-5" value="" style="endArrow=none;html=1;rounded=0;exitX=0.5;exitY=0;exitDx=0;exitDy=0;" edge="1" target="gsBzdiiEuUU9N9ICdB3_-6" parent="1" source="gsBzdiiEuUU9N9ICdB3_-2">
          <mxGeometry relative="1" as="geometry">
            <mxPoint x="-325" y="615" as="sourcePoint" />
            <mxPoint x="-265" y="615" as="targetPoint" />
          </mxGeometry>
        </mxCell>
        <mxCell id="gsBzdiiEuUU9N9ICdB3_-6" value="&lt;u&gt;DNI&lt;/u&gt;" style="ellipse;whiteSpace=wrap;html=1;align=center;" vertex="1" parent="1">
          <mxGeometry x="-290" y="600" width="50" height="30" as="geometry" />
        </mxCell>
        <mxCell id="gsBzdiiEuUU9N9ICdB3_-7" value="" style="endArrow=none;html=1;rounded=0;exitX=0.25;exitY=0;exitDx=0;exitDy=0;" edge="1" target="gsBzdiiEuUU9N9ICdB3_-8" parent="1" source="gsBzdiiEuUU9N9ICdB3_-2">
          <mxGeometry relative="1" as="geometry">
            <mxPoint x="-380" y="645" as="sourcePoint" />
            <mxPoint x="-320" y="645" as="targetPoint" />
          </mxGeometry>
        </mxCell>
        <mxCell id="gsBzdiiEuUU9N9ICdB3_-8" value="nombre" style="ellipse;whiteSpace=wrap;html=1;align=center;" vertex="1" parent="1">
          <mxGeometry x="-345" y="630" width="50" height="30" as="geometry" />
        </mxCell>
        <mxCell id="gsBzdiiEuUU9N9ICdB3_-9" value="" style="endArrow=none;html=1;rounded=0;exitX=0.75;exitY=0;exitDx=0;exitDy=0;" edge="1" target="gsBzdiiEuUU9N9ICdB3_-10" parent="1" source="gsBzdiiEuUU9N9ICdB3_-2">
          <mxGeometry relative="1" as="geometry">
            <mxPoint x="-240" y="655" as="sourcePoint" />
            <mxPoint x="-180" y="655" as="targetPoint" />
          </mxGeometry>
        </mxCell>
        <mxCell id="gsBzdiiEuUU9N9ICdB3_-10" value="nacionalidad" style="ellipse;whiteSpace=wrap;html=1;align=center;" vertex="1" parent="1">
          <mxGeometry x="-240" y="630" width="80" height="30" as="geometry" />
        </mxCell>
        <mxCell id="gsBzdiiEuUU9N9ICdB3_-11" value="" style="endArrow=none;html=1;rounded=0;exitX=0;exitY=0.25;exitDx=0;exitDy=0;" edge="1" target="gsBzdiiEuUU9N9ICdB3_-12" parent="1" source="gsBzdiiEuUU9N9ICdB3_-2">
          <mxGeometry relative="1" as="geometry">
            <mxPoint x="-405" y="685" as="sourcePoint" />
            <mxPoint x="-345" y="685" as="targetPoint" />
          </mxGeometry>
        </mxCell>
        <mxCell id="gsBzdiiEuUU9N9ICdB3_-12" value="fechaNacim" style="ellipse;whiteSpace=wrap;html=1;align=center;" vertex="1" parent="1">
          <mxGeometry x="-390" y="670" width="75" height="30" as="geometry" />
        </mxCell>
        <mxCell id="gsBzdiiEuUU9N9ICdB3_-13" value="pertenece" style="shape=rhombus;perimeter=rhombusPerimeter;whiteSpace=wrap;html=1;align=center;fillColor=#76608a;fontColor=#ffffff;strokeColor=#432D57;" vertex="1" parent="1">
          <mxGeometry x="-160" y="690" width="90" height="40" as="geometry" />
        </mxCell>
        <mxCell id="gsBzdiiEuUU9N9ICdB3_-14" value="" style="endArrow=none;html=1;rounded=0;exitX=0;exitY=0.5;exitDx=0;exitDy=0;entryX=1;entryY=0.5;entryDx=0;entryDy=0;" edge="1" source="gsBzdiiEuUU9N9ICdB3_-13" parent="1" target="gsBzdiiEuUU9N9ICdB3_-2">
          <mxGeometry relative="1" as="geometry">
            <mxPoint x="-123" y="690" as="sourcePoint" />
            <mxPoint x="-170" y="720" as="targetPoint" />
          </mxGeometry>
        </mxCell>
        <mxCell id="gsBzdiiEuUU9N9ICdB3_-15" value="(1,N)" style="resizable=0;html=1;whiteSpace=wrap;align=right;verticalAlign=bottom;" connectable="0" vertex="1" parent="gsBzdiiEuUU9N9ICdB3_-14">
          <mxGeometry x="1" relative="1" as="geometry">
            <mxPoint x="34" as="offset" />
          </mxGeometry>
        </mxCell>
        <mxCell id="gsBzdiiEuUU9N9ICdB3_-16" value="" style="endArrow=none;html=1;rounded=0;exitX=1;exitY=0.5;exitDx=0;exitDy=0;entryX=0;entryY=0.5;entryDx=0;entryDy=0;" edge="1" source="gsBzdiiEuUU9N9ICdB3_-13" parent="1" target="gsBzdiiEuUU9N9ICdB3_-3">
          <mxGeometry relative="1" as="geometry">
            <mxPoint x="-123" y="690" as="sourcePoint" />
            <mxPoint x="50" y="720" as="targetPoint" />
          </mxGeometry>
        </mxCell>
        <mxCell id="gsBzdiiEuUU9N9ICdB3_-17" value="(1,1)" style="resizable=0;html=1;whiteSpace=wrap;align=right;verticalAlign=bottom;" connectable="0" vertex="1" parent="gsBzdiiEuUU9N9ICdB3_-16">
          <mxGeometry x="1" relative="1" as="geometry">
            <mxPoint as="offset" />
          </mxGeometry>
        </mxCell>
        <mxCell id="gsBzdiiEuUU9N9ICdB3_-18" value="" style="endArrow=none;html=1;rounded=0;exitX=0.5;exitY=1;exitDx=0;exitDy=0;" edge="1" target="gsBzdiiEuUU9N9ICdB3_-19" parent="1" source="gsBzdiiEuUU9N9ICdB3_-13">
          <mxGeometry relative="1" as="geometry">
            <mxPoint x="-230" y="775" as="sourcePoint" />
            <mxPoint x="-170" y="775" as="targetPoint" />
          </mxGeometry>
        </mxCell>
        <mxCell id="gsBzdiiEuUU9N9ICdB3_-19" value="fechaInicio" style="ellipse;whiteSpace=wrap;html=1;align=center;" vertex="1" parent="1">
          <mxGeometry x="-152.5" y="760" width="75" height="30" as="geometry" />
        </mxCell>
        <mxCell id="gsBzdiiEuUU9N9ICdB3_-20" value="" style="endArrow=none;html=1;rounded=0;exitX=0.5;exitY=0;exitDx=0;exitDy=0;" edge="1" target="gsBzdiiEuUU9N9ICdB3_-21" parent="1" source="gsBzdiiEuUU9N9ICdB3_-13">
          <mxGeometry relative="1" as="geometry">
            <mxPoint x="-160" y="625" as="sourcePoint" />
            <mxPoint x="-100" y="625" as="targetPoint" />
          </mxGeometry>
        </mxCell>
        <mxCell id="gsBzdiiEuUU9N9ICdB3_-21" value="fechaFin" style="ellipse;whiteSpace=wrap;html=1;align=center;" vertex="1" parent="1">
          <mxGeometry x="-145" y="630" width="60" height="30" as="geometry" />
        </mxCell>
        <mxCell id="gsBzdiiEuUU9N9ICdB3_-22" value="" style="endArrow=none;html=1;rounded=0;exitX=0.5;exitY=0;exitDx=0;exitDy=0;" edge="1" target="gsBzdiiEuUU9N9ICdB3_-23" parent="1" source="gsBzdiiEuUU9N9ICdB3_-3">
          <mxGeometry relative="1" as="geometry">
            <mxPoint x="-40" y="625" as="sourcePoint" />
            <mxPoint x="20" y="625" as="targetPoint" />
          </mxGeometry>
        </mxCell>
        <mxCell id="gsBzdiiEuUU9N9ICdB3_-23" value="&lt;u&gt;nombre&lt;/u&gt;" style="ellipse;whiteSpace=wrap;html=1;align=center;" vertex="1" parent="1">
          <mxGeometry x="-15" y="600" width="50" height="30" as="geometry" />
        </mxCell>
        <mxCell id="gsBzdiiEuUU9N9ICdB3_-24" value="" style="endArrow=none;html=1;rounded=0;exitX=0.75;exitY=0;exitDx=0;exitDy=0;" edge="1" target="gsBzdiiEuUU9N9ICdB3_-25" parent="1" source="gsBzdiiEuUU9N9ICdB3_-3">
          <mxGeometry relative="1" as="geometry">
            <mxPoint x="33" y="645" as="sourcePoint" />
            <mxPoint x="93" y="645" as="targetPoint" />
          </mxGeometry>
        </mxCell>
        <mxCell id="gsBzdiiEuUU9N9ICdB3_-25" value="nacionalidad" style="ellipse;whiteSpace=wrap;html=1;align=center;" vertex="1" parent="1">
          <mxGeometry x="20" y="630" width="82" height="30" as="geometry" />
        </mxCell>
        <mxCell id="gsBzdiiEuUU9N9ICdB3_-26" value="" style="endArrow=none;html=1;rounded=0;exitX=0.25;exitY=0;exitDx=0;exitDy=0;" edge="1" target="gsBzdiiEuUU9N9ICdB3_-27" parent="1" source="gsBzdiiEuUU9N9ICdB3_-3">
          <mxGeometry relative="1" as="geometry">
            <mxPoint x="-85" y="645" as="sourcePoint" />
            <mxPoint x="-25" y="645" as="targetPoint" />
          </mxGeometry>
        </mxCell>
        <mxCell id="gsBzdiiEuUU9N9ICdB3_-27" value="director" style="ellipse;whiteSpace=wrap;html=1;align=center;" vertex="1" parent="1">
          <mxGeometry x="-60" y="630" width="50" height="30" as="geometry" />
        </mxCell>
        <mxCell id="gsBzdiiEuUU9N9ICdB3_-28" value="participa" style="shape=rhombus;perimeter=rhombusPerimeter;whiteSpace=wrap;html=1;align=center;fillColor=#76608a;fontColor=#ffffff;strokeColor=#432D57;" vertex="1" parent="1">
          <mxGeometry x="102" y="690" width="90" height="40" as="geometry" />
        </mxCell>
        <mxCell id="gsBzdiiEuUU9N9ICdB3_-29" value="" style="endArrow=none;html=1;rounded=0;exitX=0;exitY=0.5;exitDx=0;exitDy=0;entryX=1;entryY=0.5;entryDx=0;entryDy=0;" edge="1" source="gsBzdiiEuUU9N9ICdB3_-28" parent="1" target="gsBzdiiEuUU9N9ICdB3_-3">
          <mxGeometry relative="1" as="geometry">
            <mxPoint x="149" y="690" as="sourcePoint" />
            <mxPoint x="102" y="720" as="targetPoint" />
          </mxGeometry>
        </mxCell>
        <mxCell id="gsBzdiiEuUU9N9ICdB3_-30" value="(1,N)" style="resizable=0;html=1;whiteSpace=wrap;align=right;verticalAlign=bottom;" connectable="0" vertex="1" parent="gsBzdiiEuUU9N9ICdB3_-29">
          <mxGeometry x="1" relative="1" as="geometry">
            <mxPoint x="34" as="offset" />
          </mxGeometry>
        </mxCell>
        <mxCell id="gsBzdiiEuUU9N9ICdB3_-31" value="" style="endArrow=none;html=1;rounded=0;exitX=1;exitY=0.5;exitDx=0;exitDy=0;entryX=0;entryY=0.5;entryDx=0;entryDy=0;" edge="1" source="gsBzdiiEuUU9N9ICdB3_-28" parent="1" target="gsBzdiiEuUU9N9ICdB3_-4">
          <mxGeometry relative="1" as="geometry">
            <mxPoint x="149" y="690" as="sourcePoint" />
            <mxPoint x="322" y="720" as="targetPoint" />
          </mxGeometry>
        </mxCell>
        <mxCell id="gsBzdiiEuUU9N9ICdB3_-32" value="(1,M)" style="resizable=0;html=1;whiteSpace=wrap;align=right;verticalAlign=bottom;" connectable="0" vertex="1" parent="gsBzdiiEuUU9N9ICdB3_-31">
          <mxGeometry x="1" relative="1" as="geometry">
            <mxPoint as="offset" />
          </mxGeometry>
        </mxCell>
        <mxCell id="gsBzdiiEuUU9N9ICdB3_-33" value="" style="endArrow=none;html=1;rounded=0;exitX=0.5;exitY=0;exitDx=0;exitDy=0;" edge="1" target="gsBzdiiEuUU9N9ICdB3_-34" parent="1" source="gsBzdiiEuUU9N9ICdB3_-4">
          <mxGeometry relative="1" as="geometry">
            <mxPoint x="225" y="615" as="sourcePoint" />
            <mxPoint x="285" y="615" as="targetPoint" />
          </mxGeometry>
        </mxCell>
        <mxCell id="gsBzdiiEuUU9N9ICdB3_-34" value="&lt;u&gt;nombre&lt;/u&gt;" style="ellipse;whiteSpace=wrap;html=1;align=center;" vertex="1" parent="1">
          <mxGeometry x="255" y="600" width="50" height="30" as="geometry" />
        </mxCell>
        <mxCell id="gsBzdiiEuUU9N9ICdB3_-35" value="" style="endArrow=none;html=1;rounded=0;exitX=0.75;exitY=0;exitDx=0;exitDy=0;" edge="1" target="gsBzdiiEuUU9N9ICdB3_-36" parent="1" source="gsBzdiiEuUU9N9ICdB3_-4">
          <mxGeometry relative="1" as="geometry">
            <mxPoint x="305" y="665" as="sourcePoint" />
            <mxPoint x="365" y="665" as="targetPoint" />
          </mxGeometry>
        </mxCell>
        <mxCell id="gsBzdiiEuUU9N9ICdB3_-36" value="edicion" style="ellipse;whiteSpace=wrap;html=1;align=center;" vertex="1" parent="1">
          <mxGeometry x="300" y="630" width="50" height="30" as="geometry" />
        </mxCell>
        <mxCell id="gsBzdiiEuUU9N9ICdB3_-37" value="" style="endArrow=none;html=1;rounded=0;exitX=0.25;exitY=0;exitDx=0;exitDy=0;" edge="1" target="gsBzdiiEuUU9N9ICdB3_-38" parent="1" source="gsBzdiiEuUU9N9ICdB3_-4">
          <mxGeometry relative="1" as="geometry">
            <mxPoint x="180" y="645" as="sourcePoint" />
            <mxPoint x="240" y="645" as="targetPoint" />
          </mxGeometry>
        </mxCell>
        <mxCell id="gsBzdiiEuUU9N9ICdB3_-38" value="etapas" style="ellipse;whiteSpace=wrap;html=1;align=center;" vertex="1" parent="1">
          <mxGeometry x="205" y="630" width="50" height="30" as="geometry" />
        </mxCell>
        <mxCell id="gsBzdiiEuUU9N9ICdB3_-39" value="" style="endArrow=none;html=1;rounded=0;exitX=1;exitY=0.25;exitDx=0;exitDy=0;" edge="1" target="gsBzdiiEuUU9N9ICdB3_-40" parent="1" source="gsBzdiiEuUU9N9ICdB3_-4">
          <mxGeometry relative="1" as="geometry">
            <mxPoint x="320" y="685" as="sourcePoint" />
            <mxPoint x="380" y="685" as="targetPoint" />
          </mxGeometry>
        </mxCell>
        <mxCell id="gsBzdiiEuUU9N9ICdB3_-40" value="kmTotales" style="ellipse;whiteSpace=wrap;html=1;align=center;" vertex="1" parent="1">
          <mxGeometry x="330" y="670" width="65" height="30" as="geometry" />
        </mxCell>
        <mxCell id="gsBzdiiEuUU9N9ICdB3_-41" value="" style="endArrow=none;html=1;rounded=0;exitX=0.5;exitY=0;exitDx=0;exitDy=0;" edge="1" target="gsBzdiiEuUU9N9ICdB3_-42" parent="1" source="gsBzdiiEuUU9N9ICdB3_-28">
          <mxGeometry relative="1" as="geometry">
            <mxPoint x="102" y="645" as="sourcePoint" />
            <mxPoint x="162" y="645" as="targetPoint" />
          </mxGeometry>
        </mxCell>
        <mxCell id="gsBzdiiEuUU9N9ICdB3_-42" value="fechaPart" style="ellipse;whiteSpace=wrap;html=1;align=center;" vertex="1" parent="1">
          <mxGeometry x="115.5" y="630" width="63" height="30" as="geometry" />
        </mxCell>
        <mxCell id="gsBzdiiEuUU9N9ICdB3_-43" value="" style="endArrow=none;html=1;rounded=0;exitX=0.5;exitY=1;exitDx=0;exitDy=0;" edge="1" target="gsBzdiiEuUU9N9ICdB3_-44" parent="1" source="gsBzdiiEuUU9N9ICdB3_-28">
          <mxGeometry relative="1" as="geometry">
            <mxPoint x="94" y="775" as="sourcePoint" />
            <mxPoint x="154" y="775" as="targetPoint" />
          </mxGeometry>
        </mxCell>
        <mxCell id="gsBzdiiEuUU9N9ICdB3_-44" value="ganador" style="ellipse;whiteSpace=wrap;html=1;align=center;" vertex="1" parent="1">
          <mxGeometry x="122" y="760" width="50" height="30" as="geometry" />
        </mxCell>
      </root>
    </mxGraphModel>
  </diagram>
</mxfile>
